<svg width="38" height="10" viewBox="0 0 38 10" fill="none" xmlns="http://www.w3.org/2000/svg">
<path d="M3.03581 9.32405C2.56381 9.32405 2.12381 9.24005 1.71581 9.07205C1.30781 8.90405 0.955813 8.66805 0.659813 8.36405C0.363813 8.05205 0.143813 7.68405 -0.000187486 7.26005L0.995813 6.85205C1.16381 7.30005 1.42781 7.64805 1.78781 7.89605C2.14781 8.14405 2.56381 8.26805 3.03581 8.26805C3.40381 8.26805 3.73181 8.19605 4.01981 8.05205C4.30781 7.90805 4.53181 7.70005 4.69181 7.42805C4.85981 7.15605 4.94381 6.82805 4.94381 6.44405C4.94381 6.05205 4.85981 5.72405 4.69181 5.46005C4.53181 5.18805 4.30781 4.98005 4.01981 4.83605C3.73181 4.69205 3.39981 4.62005 3.02381 4.62005C2.90381 4.62005 2.77181 4.62805 2.62781 4.64405C2.49181 4.66005 2.37581 4.68405 2.27981 4.71605L2.02781 4.17605L4.41581 1.26005H0.455813V0.240053H5.74781V1.22405L3.46781 4.03205L3.39581 3.72005C3.93181 3.73605 4.40381 3.86005 4.81181 4.09205C5.21981 4.32405 5.53981 4.64005 5.77181 5.04005C6.00381 5.43205 6.11981 5.89205 6.11981 6.42005C6.11981 6.96405 5.98781 7.45605 5.72381 7.89605C5.45981 8.33605 5.09581 8.68405 4.63181 8.94005C4.16781 9.19605 3.63581 9.32405 3.03581 9.32405ZM9.54225 5.30405C9.54225 4.35205 9.64225 3.54405 9.84225 2.88005C10.0503 2.21605 10.3703 1.68805 10.8023 1.29605C11.2343 0.896054 11.7943 0.624053 12.4823 0.480053C12.9783 0.384053 13.4623 0.296053 13.9343 0.216053C14.4143 0.136053 14.8783 0.0640533 15.3263 5.31673e-05L15.5063 1.11605C15.3063 1.14005 15.0783 1.17205 14.8223 1.21205C14.5743 1.25205 14.3183 1.29205 14.0543 1.33205C13.7983 1.37205 13.5503 1.41205 13.3103 1.45205C13.0783 1.49205 12.8703 1.53205 12.6863 1.57205C12.4063 1.62005 12.1583 1.70405 11.9423 1.82405C11.7343 1.94405 11.5543 2.10405 11.4023 2.30405C11.2583 2.50405 11.1423 2.76005 11.0543 3.07205C10.9663 3.37605 10.9143 3.74805 10.8983 4.18805H10.9703C11.0823 4.03605 11.2303 3.88005 11.4143 3.72005C11.6063 3.56005 11.8343 3.42805 12.0983 3.32405C12.3703 3.21205 12.6823 3.15605 13.0343 3.15605C13.5783 3.15605 14.0383 3.27605 14.4143 3.51605C14.7903 3.74805 15.0743 4.08005 15.2663 4.51205C15.4583 4.93605 15.5543 5.44405 15.5543 6.03605C15.5543 6.76405 15.4263 7.37205 15.1703 7.86005C14.9223 8.34005 14.5703 8.70005 14.1143 8.94005C13.6663 9.18005 13.1423 9.30005 12.5423 9.30005C12.0863 9.30005 11.6743 9.21605 11.3063 9.04805C10.9383 8.87205 10.6223 8.61605 10.3583 8.28005C10.0943 7.93605 9.89025 7.51605 9.74625 7.02005C9.61025 6.52405 9.54225 5.95205 9.54225 5.30405ZM12.6383 8.25605C12.9583 8.25605 13.2383 8.18805 13.4783 8.05205C13.7183 7.91605 13.9023 7.69605 14.0303 7.39205C14.1663 7.08805 14.2343 6.68005 14.2343 6.16805C14.2343 5.55205 14.1223 5.06405 13.8983 4.70405C13.6743 4.34405 13.3023 4.16405 12.7823 4.16405C12.4623 4.16405 12.1663 4.24005 11.8943 4.39205C11.6303 4.53605 11.4063 4.70005 11.2223 4.88405C11.0463 5.06805 10.9223 5.22405 10.8503 5.35205C10.8503 5.72805 10.8743 6.08805 10.9223 6.43205C10.9783 6.77605 11.0703 7.08405 11.1983 7.35605C11.3343 7.62805 11.5183 7.84805 11.7503 8.01605C11.9823 8.17605 12.2783 8.25605 12.6383 8.25605ZM22.3636 9.18005H21.0796V3.73205H19.2556C19.1756 4.72405 19.0756 5.57605 18.9556 6.28805C18.8436 6.99205 18.6956 7.56405 18.5116 8.00405C18.3356 8.44405 18.1156 8.76805 17.8516 8.97605C17.5956 9.17605 17.2876 9.27605 16.9276 9.27605C16.7996 9.27605 16.6756 9.26405 16.5556 9.24005C16.4356 9.22405 16.3316 9.19605 16.2436 9.15605V8.18405C16.2996 8.20005 16.3596 8.21605 16.4236 8.23205C16.4956 8.24005 16.5676 8.24405 16.6396 8.24405C16.7996 8.24405 16.9436 8.18005 17.0716 8.05205C17.2076 7.92405 17.3276 7.72405 17.4316 7.45205C17.5436 7.18005 17.6436 6.82805 17.7316 6.39605C17.8276 5.95605 17.9076 5.43205 17.9716 4.82405C18.0436 4.21605 18.1076 3.51205 18.1636 2.71205H22.3636V9.18005ZM30.0515 5.94005C30.0515 6.47605 29.9795 6.95205 29.8355 7.36805C29.6915 7.78405 29.4875 8.13605 29.2235 8.42405C28.9595 8.71205 28.6395 8.93205 28.2635 9.08405C27.8875 9.22805 27.4635 9.30005 26.9915 9.30005C26.5595 9.30005 26.1595 9.22805 25.7915 9.08405C25.4235 8.93205 25.1035 8.71205 24.8315 8.42405C24.5675 8.13605 24.3595 7.78405 24.2075 7.36805C24.0555 6.95205 23.9795 6.47205 23.9795 5.92805C23.9795 5.21605 24.0995 4.61205 24.3395 4.11605C24.5875 3.62005 24.9395 3.24405 25.3955 2.98805C25.8595 2.72405 26.4035 2.59205 27.0275 2.59205C27.6195 2.59205 28.1395 2.72405 28.5875 2.98805C29.0435 3.24405 29.3995 3.62005 29.6555 4.11605C29.9195 4.61205 30.0515 5.22005 30.0515 5.94005ZM25.2875 5.94005C25.2875 6.42005 25.3475 6.83605 25.4675 7.18805C25.5875 7.53205 25.7755 7.79605 26.0315 7.98005C26.2875 8.16405 26.6155 8.25605 27.0155 8.25605C27.4155 8.25605 27.7435 8.16405 27.9995 7.98005C28.2555 7.79605 28.4435 7.53205 28.5635 7.18805C28.6835 6.83605 28.7435 6.42005 28.7435 5.94005C28.7435 5.44405 28.6795 5.02805 28.5515 4.69205C28.4315 4.35605 28.2435 4.10005 27.9875 3.92405C27.7395 3.74005 27.4115 3.64805 27.0035 3.64805C26.4035 3.64805 25.9675 3.84805 25.6955 4.24805C25.4235 4.64805 25.2875 5.21205 25.2875 5.94005ZM35.612 2.71205H37.004L34.304 5.82005L37.232 9.18005H35.768L32.936 5.90405V9.18005H31.664V2.71205H32.936V5.85605L35.612 2.71205Z" fill="#70CB57"/>
</svg>
