<svg width="24" height="24" viewBox="0 0 24 24" fill="none" xmlns="http://www.w3.org/2000/svg">
<circle cx="5.46536" cy="16.6861" r="1.20755" fill="#5778CB"/>
<circle cx="19.5679" cy="16.7714" r="1.20755" fill="#5778CB"/>
<path d="M13.0562 9.69835C13.1991 9.69835 13.3149 9.8142 13.3149 9.95711V16.0811C13.3149 16.224 13.1991 16.3399 13.0562 16.3399H10.8136C10.6707 16.3399 10.5548 16.224 10.5548 16.0811V9.95711C10.5548 9.8142 10.6707 9.69835 10.8136 9.69835H13.0562Z" fill="#5778CB"/>
<path fill-rule="evenodd" clip-rule="evenodd" d="M17.398 6.33447C18.9301 6.33448 20.1721 7.57648 20.1721 9.10856C20.1721 9.24375 20.0625 9.35334 19.9273 9.35334H14.5656C14.4703 9.35334 14.3931 9.43057 14.3931 9.52585V16.5124H14.7813V10.0434C14.7813 9.90046 14.8971 9.78461 15.04 9.78461H17.0634C17.6324 9.78461 18.1691 10.0714 18.4907 10.5408C19.1984 11.5736 20.0804 12.4954 21.0838 13.244L21.4877 13.5454C21.9896 13.9198 22.2853 14.5092 22.2853 15.1354V16.728C22.2853 16.9662 22.0922 17.1593 21.854 17.1593H21.0381C21.064 17.0485 21.0777 16.933 21.0777 16.8143C21.0777 15.9806 20.402 15.3048 19.5683 15.3048C18.7347 15.3048 18.0589 15.9806 18.0589 16.8143C18.0589 16.933 18.0726 17.0485 18.0986 17.1593H6.91265C6.95333 17.0226 6.97532 16.8779 6.97532 16.728C6.97532 15.8944 6.29953 15.2186 5.46589 15.2186C4.63225 15.2186 3.95645 15.8944 3.95645 16.728C3.95645 16.8779 3.97845 17.0226 4.01912 17.1593H1.97263C1.82972 17.1593 1.71387 17.0434 1.71387 16.9005V7.11075C1.71387 6.68203 2.06142 6.33447 2.49015 6.33447H17.398ZM10.8136 9.35334C10.4801 9.35334 10.2098 9.62366 10.2098 9.95711V16.0811C10.2098 16.4146 10.4801 16.6849 10.8136 16.6849H13.0562C13.3896 16.6849 13.66 16.4146 13.66 16.0811V9.95711C13.66 9.62366 13.3896 9.35334 13.0562 9.35334H10.8136ZM15.6869 10.9059C15.544 10.9059 15.4282 11.0218 15.4282 11.1647V13.1485C15.4282 13.2914 15.544 13.4072 15.6869 13.4072H18.5333C18.6762 13.4072 18.792 13.2914 18.792 13.1485V12.976C18.792 11.8327 17.8652 10.9059 16.722 10.9059H15.6869ZM3.78395 10.7334C3.54577 10.7334 3.35268 10.9265 3.35268 11.1647V12.8897C3.35268 13.1279 3.54577 13.321 3.78395 13.321H7.66535C7.90353 13.321 8.09662 13.1279 8.09662 12.8897V11.1647C8.09662 10.9265 7.90353 10.7334 7.66535 10.7334H3.78395Z" fill="#5778CB"/>
</svg>
