<svg width="24" height="24" viewBox="0 0 24 24" fill="none" xmlns="http://www.w3.org/2000/svg">
<g clip-path="url(#clip0_243_9771)">
<path fill-rule="evenodd" clip-rule="evenodd" d="M19.9936 4.17427C20.1386 4.31961 20.2201 4.51657 20.2201 4.72191C20.2201 4.92726 20.1386 5.12421 19.9936 5.26956L19.0099 6.25321V8.94492C19.0099 9.11768 18.9521 9.28546 18.8458 9.42165C18.7395 9.55783 18.5908 9.65461 18.4232 9.69662L16.5886 10.1556V11.3799C16.5885 11.4371 16.5996 11.4938 16.6214 11.5467C16.6433 11.5996 16.6753 11.6476 16.7158 11.6881C16.7563 11.7286 16.8043 11.7606 16.8572 11.7825C16.9101 11.8043 16.9668 11.8154 17.024 11.8153C17.8718 11.8153 18.6849 12.152 19.2843 12.7515C19.8838 13.351 20.2206 14.164 20.2206 15.0118C20.2206 15.8596 19.8838 16.6727 19.2843 17.2721C18.6849 17.8716 17.8718 18.2084 17.024 18.2084H14.0123V18.614C14.0123 19.1075 13.8162 19.5807 13.4673 19.9297C13.1184 20.2786 12.6451 20.4746 12.1516 20.4746H4.94852C4.45505 20.4746 3.98179 20.2786 3.63286 19.9297C3.28392 19.5807 3.08789 19.1075 3.08789 18.614V7.80746C3.08789 6.98501 3.41461 6.19624 3.99617 5.61468C4.57773 5.03312 5.36649 4.70641 6.18894 4.70641H10.91C11.7324 4.70641 12.5212 5.03312 13.1028 5.61468C13.6843 6.19624 14.011 6.98501 14.011 7.80746V16.6579H17.0228C17.4593 16.6579 17.878 16.4844 18.1867 16.1757C18.4954 15.8671 18.6688 15.4484 18.6688 15.0118C18.6688 14.5753 18.4954 14.1566 18.1867 13.8479C17.878 13.5392 17.4593 13.3658 17.0228 13.3658C16.4964 13.3658 15.9916 13.1567 15.6194 12.7845C15.2472 12.4123 15.0381 11.9075 15.0381 11.3811V8.352C15.0381 8.14733 15.1187 7.95011 15.2639 7.80374L18.8983 4.17551C18.9703 4.10349 19.0558 4.04637 19.1498 4.0074C19.2439 3.96842 19.3447 3.94836 19.4466 3.94836C19.5484 3.94836 19.6492 3.96842 19.7433 4.0074C19.8374 4.04637 19.9228 4.10349 19.9948 4.17551M4.32707 11.9703V9.16324H12.7719V11.9703H4.32707ZM10.3679 14.8431C10.7959 14.8431 11.1432 15.1904 11.1432 15.6184V16.829C11.1432 17.0347 11.0615 17.2318 10.9161 17.3772C10.7707 17.5226 10.5735 17.6043 10.3679 17.6043C10.1623 17.6043 9.96512 17.5226 9.81973 17.3772C9.67434 17.2318 9.59266 17.0347 9.59266 16.829V15.6184C9.59266 15.1904 9.93998 14.8431 10.3679 14.8431Z" fill="#5778CB"/>
</g>
<defs>
<clipPath id="clip0_243_9771">
<rect width="17.3659" height="17.3659" fill="white" transform="translate(2.97363 3.10889)"/>
</clipPath>
</defs>
</svg>
